<svg xmlns="http://www.w3.org/2000/svg" xmlns:xlink="http://www.w3.org/1999/xlink"  width="133" height="40" zoomAndPan="magnify" viewBox="0 0 99.75 30.000001"  preserveAspectRatio="xMidYMid meet" version="1.0"><defs><g/><clipPath id="62e4667df6"><path d="M 11.828125 6.636719 L 21.992188 6.636719 L 21.992188 18.917969 L 11.828125 18.917969 Z M 11.828125 6.636719 " clip-rule="nonzero"/></clipPath><clipPath id="f006403454"><path d="M 22.152344 19.253906 L 11.828125 19.253906 L 11.828125 6.636719 L 22.152344 6.636719 L 22.152344 19.253906 M 12.460938 7.207031 C 12.460938 7.222656 12.460938 7.242188 12.460938 7.257812 L 12.460938 16.636719 C 12.460938 16.636719 21.636719 16.636719 21.667969 16.636719 C 21.667969 13.492188 21.667969 10.351562 21.667969 7.207031 C 21.667969 7.207031 12.496094 7.207031 12.460938 7.207031 " clip-rule="nonzero"/></clipPath><clipPath id="4574652ac1"><path d="M 22.152344 19.253906 L 11.828125 19.253906 L 11.828125 6.636719 L 22.152344 6.636719 L 22.152344 19.253906 M 12.460938 7.207031 C 12.460938 7.222656 12.460938 7.242188 12.460938 7.257812 L 12.460938 16.636719 C 12.460938 16.636719 21.636719 16.636719 21.667969 16.636719 C 21.667969 13.492188 21.667969 10.351562 21.667969 7.207031 C 21.667969 7.207031 12.496094 7.207031 12.460938 7.207031 " clip-rule="nonzero"/></clipPath><linearGradient x1="0.000000097002" gradientTransform="matrix(10.32287, 0, 0, 10.32287, 11.829946, 12.945463)" y1="0" x2="0.984347" gradientUnits="userSpaceOnUse" y2="0" id="5adddea041"><stop stop-opacity="1" stop-color="rgb(99.998474%, 99.998474%, 99.998474%)" offset="0"/><stop stop-opacity="1" stop-color="rgb(72.720337%, 73.626709%, 73.600769%)" offset="0.00390625"/><stop stop-opacity="1" stop-color="rgb(45.4422%, 47.25647%, 47.203064%)" offset="0.0078125"/><stop stop-opacity="1" stop-color="rgb(44.470215%, 46.377563%, 46.350098%)" offset="0.0117188"/><stop stop-opacity="1" stop-color="rgb(43.499756%, 45.498657%, 45.498657%)" offset="0.015625"/><stop stop-opacity="1" stop-color="rgb(43.499756%, 45.498657%, 45.498657%)" offset="0.03125"/><stop stop-opacity="1" stop-color="rgb(43.499756%, 45.498657%, 45.498657%)" offset="0.0625"/><stop stop-opacity="1" stop-color="rgb(43.499756%, 45.498657%, 45.498657%)" offset="0.125"/><stop stop-opacity="1" stop-color="rgb(43.499756%, 45.498657%, 45.498657%)" offset="0.25"/><stop stop-opacity="1" stop-color="rgb(43.499756%, 45.498657%, 45.498657%)" offset="0.5"/><stop stop-opacity="1" stop-color="rgb(43.499756%, 45.498657%, 45.498657%)" offset="1"/></linearGradient><clipPath id="629cf096ba"><path d="M 11.828125 6.582031 L 21.992188 6.582031 L 21.992188 18.917969 L 11.828125 18.917969 Z M 11.828125 6.582031 " clip-rule="nonzero"/></clipPath><clipPath id="33c0d9db2a"><path d="M 5 1 L 30 1 L 30 27 L 5 27 Z M 5 1 " clip-rule="nonzero"/></clipPath><clipPath id="34f0640b81"><path d="M 4.921875 10.046875 L 19.390625 0.351562 L 31.109375 17.835938 L 16.636719 27.53125 Z M 4.921875 10.046875 " clip-rule="nonzero"/></clipPath><clipPath id="1e709e50e5"><path d="M 4.921875 10.046875 L 19.390625 0.351562 L 31.109375 17.835938 L 16.636719 27.53125 Z M 4.921875 10.046875 " clip-rule="nonzero"/></clipPath><clipPath id="9603bb7841"><path d="M 22 14 L 27 14 L 27 18 L 22 18 Z M 22 14 " clip-rule="nonzero"/></clipPath><clipPath id="44c03b23a9"><path d="M 4.921875 10.046875 L 19.390625 0.351562 L 31.109375 17.835938 L 16.636719 27.53125 Z M 4.921875 10.046875 " clip-rule="nonzero"/></clipPath><clipPath id="74b0f53aae"><path d="M 4.921875 10.046875 L 19.390625 0.351562 L 31.109375 17.835938 L 16.636719 27.53125 Z M 4.921875 10.046875 " clip-rule="nonzero"/></clipPath><clipPath id="a4edc5f3ba"><path d="M 3.746094 0.507812 L 14 0.507812 L 14 11 L 3.746094 11 Z M 3.746094 0.507812 " clip-rule="nonzero"/></clipPath><clipPath id="86722b52d2"><path d="M 22 0.507812 L 32 0.507812 L 32 11 L 22 11 Z M 22 0.507812 " clip-rule="nonzero"/></clipPath><clipPath id="d247d70b72"><path d="M 22 19 L 32 19 L 32 28.816406 L 22 28.816406 Z M 22 19 " clip-rule="nonzero"/></clipPath><clipPath id="0ad0d9d5e4"><path d="M 3.746094 19 L 14 19 L 14 28.816406 L 3.746094 28.816406 Z M 3.746094 19 " clip-rule="nonzero"/></clipPath></defs><g clip-path="url(#62e4667df6)"><g clip-path="url(#f006403454)"><g clip-path="url(#4574652ac1)"><path fill="url(#5adddea041)" d="M 11.828125 6.636719 L 11.828125 18.917969 L 21.992188 18.917969 L 21.992188 6.636719 Z M 11.828125 6.636719 " fill-rule="nonzero"/></g></g></g><g clip-path="url(#629cf096ba)"><path fill="#6b38d1" d="M 21.667969 16.585938 L 12.5625 16.585938 L 12.5625 7.207031 L 21.667969 7.207031 Z M 11.929688 6.585938 L 11.929688 19.203125 L 22.253906 19.203125 L 22.253906 6.585938 L 11.929688 6.585938 " fill-opacity="1" fill-rule="nonzero"/></g><g clip-path="url(#33c0d9db2a)"><g clip-path="url(#34f0640b81)"><g clip-path="url(#1e709e50e5)"><path fill="#8c52ff" d="M 27.933594 19.699219 C 27.535156 19.992188 27.132812 20.273438 26.734375 20.558594 C 24.875 21.871094 22.941406 23.054688 21.027344 24.28125 C 20.257812 24.777344 19.476562 25.257812 18.683594 25.726562 C 18.042969 26.101562 17.316406 26.671875 16.585938 26.859375 C 16.242188 26.945312 16.046875 26.59375 15.878906 26.347656 C 12.367188 21.113281 8.828125 15.875 5.515625 10.511719 C 5.421875 10.359375 5.355469 10.167969 5.414062 10 C 5.539062 9.628906 6.230469 9.308594 6.527344 9.101562 C 7.019531 8.761719 7.511719 8.425781 8.007812 8.09375 C 9 7.425781 9.996094 6.769531 10.992188 6.105469 C 12.417969 5.152344 13.855469 4.210938 15.304688 3.292969 C 16.03125 2.832031 16.757812 2.375 17.492188 1.929688 C 17.964844 1.640625 18.730469 0.855469 19.320312 1.179688 C 19.660156 1.367188 20.003906 2.035156 20.238281 2.347656 C 20.578125 2.796875 20.910156 3.25 21.234375 3.710938 C 22.496094 5.496094 23.652344 7.351562 24.832031 9.195312 C 26.523438 11.839844 28.171875 14.515625 29.761719 17.222656 C 30.148438 17.886719 29.816406 18.246094 29.289062 18.671875 C 28.847656 19.027344 28.390625 19.367188 27.933594 19.699219 Z M 21.195312 5.511719 C 20.570312 4.601562 19.929688 3.679688 19.238281 2.820312 C 19.175781 2.742188 19.109375 2.660156 19.015625 2.625 C 18.511719 2.421875 17.453125 3.339844 17.058594 3.578125 C 16.226562 4.074219 15.402344 4.578125 14.578125 5.085938 C 12.703125 6.242188 10.839844 7.421875 9.011719 8.644531 C 8.34375 9.089844 7.671875 9.523438 7.050781 10.03125 C 6.992188 10.078125 6.929688 10.132812 6.902344 10.207031 C 6.769531 10.574219 7.503906 11.367188 7.6875 11.648438 C 8.140625 12.347656 8.589844 13.042969 9.042969 13.742188 C 10.183594 15.503906 11.277344 17.304688 12.472656 19.03125 C 12.988281 19.769531 13.449219 20.539062 13.910156 21.3125 C 14.101562 21.632812 14.921875 23.070312 15.523438 22.683594 C 16.121094 22.296875 16.5625 22.042969 17.179688 21.679688 C 18.644531 20.816406 20.027344 19.832031 21.476562 18.949219 C 22.347656 18.417969 23.265625 17.839844 24.132812 17.253906 C 24.972656 16.691406 26.074219 16.070312 26.777344 15.339844 C 27.210938 14.890625 26.09375 13.414062 25.703125 12.796875 C 24.1875 10.390625 22.800781 7.867188 21.195312 5.511719 Z M 21.195312 5.511719 " fill-opacity="1" fill-rule="nonzero"/></g></g></g><g clip-path="url(#9603bb7841)"><g clip-path="url(#44c03b23a9)"><g clip-path="url(#74b0f53aae)"><path fill="#cb6ce6" d="M 23.976562 15.25 C 24 15.207031 23.992188 15.15625 24 15.109375 C 24.023438 14.828125 24.121094 14.578125 24.355469 14.414062 C 24.585938 14.25 24.925781 14.144531 25.242188 14.335938 C 25.476562 14.480469 25.644531 14.675781 25.761719 14.921875 C 25.976562 15.363281 26.070312 15.835938 26.085938 16.320312 C 26.097656 16.660156 26.082031 17 26 17.332031 C 25.957031 17.507812 25.875 17.589844 25.691406 17.609375 C 25.507812 17.632812 25.320312 17.636719 25.136719 17.597656 C 24.78125 17.519531 24.429688 17.429688 24.097656 17.28125 C 23.714844 17.117188 23.371094 16.890625 23.097656 16.578125 C 22.90625 16.363281 22.785156 16.113281 22.792969 15.808594 C 22.796875 15.410156 23.21875 15.078125 23.621094 15.152344 C 23.703125 15.167969 23.785156 15.191406 23.859375 15.222656 C 23.898438 15.238281 23.929688 15.261719 23.976562 15.25 Z M 23.976562 15.25 " fill-opacity="1" fill-rule="nonzero"/></g></g></g><g clip-path="url(#a4edc5f3ba)"><path fill="#6b38d1" d="M 4.992188 10.179688 L 3.746094 10.179688 L 3.746094 0.507812 L 13.414062 0.507812 L 13.414062 1.753906 L 4.992188 1.753906 Z M 4.992188 10.179688 " fill-opacity="1" fill-rule="nonzero"/></g><g clip-path="url(#86722b52d2)"><path fill="#6b38d1" d="M 31.984375 10.179688 L 30.738281 10.179688 L 30.738281 1.753906 L 22.3125 1.753906 L 22.3125 0.507812 L 31.984375 0.507812 Z M 31.984375 10.179688 " fill-opacity="1" fill-rule="nonzero"/></g><g clip-path="url(#d247d70b72)"><path fill="#6b38d1" d="M 31.984375 28.746094 L 22.3125 28.746094 L 22.3125 27.5 L 30.738281 27.5 L 30.738281 19.078125 L 31.984375 19.078125 Z M 31.984375 28.746094 " fill-opacity="1" fill-rule="nonzero"/></g><g clip-path="url(#0ad0d9d5e4)"><path fill="#6b38d1" d="M 13.414062 28.746094 L 3.746094 28.746094 L 3.746094 19.078125 L 4.992188 19.078125 L 4.992188 27.5 L 13.414062 27.5 Z M 13.414062 28.746094 " fill-opacity="1" fill-rule="nonzero"/></g><g fill="#ffffff" fill-opacity="1"><g transform="translate(33.297794, 21.777964)"><g><path d="M 10.609375 -17.175781 L 2.304688 -17.152344 L 2.304688 0 L 6.640625 0 L 6.640625 -4.925781 L 10.609375 -4.925781 C 15.632812 -4.925781 18.988281 -7.523438 18.988281 -11.394531 C 18.988281 -14.871094 15.632812 -17.199219 10.609375 -17.175781 Z M 14.652344 -11.171875 C 14.652344 -9.382812 13.035156 -8.160156 10.609375 -8.160156 L 6.640625 -8.160156 L 6.640625 -13.792969 L 10.609375 -13.792969 C 13.035156 -13.792969 14.652344 -12.765625 14.652344 -11.171875 Z M 14.652344 -11.171875 "/></g></g></g><g fill="#ffffff" fill-opacity="1"><g transform="translate(53.358652, 21.777964)"><g><path d="M 3.96875 -13.621094 C 5.097656 -13.621094 6.003906 -14.527344 6.003906 -15.65625 C 6.003906 -16.78125 5.097656 -17.691406 3.96875 -17.691406 C 2.84375 -17.691406 1.9375 -16.78125 1.9375 -15.65625 C 1.9375 -14.527344 2.84375 -13.621094 3.96875 -13.621094 Z M 6.050781 0 L 6.050781 -12.421875 L 1.863281 -12.421875 L 1.863281 0 Z M 6.050781 0 "/></g></g></g><g fill="#ffffff" fill-opacity="1"><g transform="translate(61.245835, 21.777964)"><g><path d="M 0.390625 0 L 5.070312 0 L 7.960938 -4.730469 L 8.132812 -4.730469 L 11.148438 0 L 15.851562 0 L 11.195312 -6.246094 L 15.777344 -12.421875 L 11.074219 -12.421875 L 8.132812 -7.765625 L 7.960938 -7.765625 L 5.070312 -12.421875 L 0.390625 -12.421875 L 4.898438 -6.246094 Z M 0.390625 0 "/></g></g></g><g fill="#ffffff" fill-opacity="1"><g transform="translate(77.338612, 21.777964)"><g><path d="M 8.871094 0.21875 C 13.425781 0.21875 16.441406 -2.277344 16.441406 -6.003906 C 16.441406 -9.996094 13.425781 -12.617188 8.871094 -12.617188 C 4.335938 -12.617188 1.324219 -9.996094 1.324219 -6.003906 C 1.324219 -2.277344 4.335938 0.21875 8.871094 0.21875 Z M 8.871094 -2.84375 C 6.859375 -2.84375 5.511719 -4.164062 5.511719 -6.199219 C 5.511719 -8.230469 6.859375 -9.578125 8.871094 -9.578125 C 10.902344 -9.578125 12.25 -8.230469 12.25 -6.199219 C 12.25 -4.164062 10.902344 -2.84375 8.871094 -2.84375 Z M 8.871094 -2.84375 "/></g></g></g></svg>